<svg width="34" height="34" viewBox="0 0 34 34" fill="none" xmlns="http://www.w3.org/2000/svg">
<path d="M2.83333 17H12.75C15.1583 17 17 18.8417 17 21.25C17 23.6583 15.1583 25.5 12.75 25.5H4.24999C3.39999 25.5 2.83333 24.9333 2.83333 24.0833V9.91667C2.83333 9.06667 3.39999 8.5 4.24999 8.5H11.3333C13.7417 8.5 15.5833 10.3417 15.5833 12.75C15.5833 15.1583 13.7417 17 11.3333 17H2.83333Z" stroke="#4B3C3B" stroke-width="2" stroke-miterlimit="10"/>
<path d="M19.8333 19.8334H31.1667C31.1667 16.7167 28.6167 14.1667 25.5 14.1667C22.3833 14.1667 19.8333 16.7167 19.8333 19.8334ZM19.8333 19.8334C19.8333 22.95 22.3833 25.5 25.5 25.5H27.9083" stroke="#4B3C3B" stroke-width="2" stroke-miterlimit="10" stroke-linecap="round" stroke-linejoin="round"/>
<path d="M27.625 10.625H23.375" stroke="#4B3C3B" stroke-width="2" stroke-miterlimit="10" stroke-linecap="round" stroke-linejoin="round"/>
</svg>
