<svg width="29" height="29" viewBox="0 0 29 29" fill="none" xmlns="http://www.w3.org/2000/svg">
<path d="M22.3542 5.7879C19.2125 11.2858 13.1588 14.4396 6.85126 13.8717L3.02084 13.5212" stroke="#4B3C3B" stroke-width="2" stroke-miterlimit="10" stroke-linecap="round" stroke-linejoin="round"/>
<path d="M6.64584 23.4054C9.78751 17.9075 15.8413 14.7537 22.1488 15.3217L25.9792 15.6721" stroke="#4B3C3B" stroke-width="2" stroke-miterlimit="10" stroke-linecap="round" stroke-linejoin="round"/>
<path d="M14.5 26.5834C21.1734 26.5834 26.5833 21.1735 26.5833 14.5C26.5833 7.82658 21.1734 2.41669 14.5 2.41669C7.82655 2.41669 2.41666 7.82658 2.41666 14.5C2.41666 21.1735 7.82655 26.5834 14.5 26.5834Z" stroke="#4B3C3B" stroke-width="2" stroke-miterlimit="10" stroke-linecap="round" stroke-linejoin="round"/>
<path d="M9.21954 3.625L13.062 8.39792C15.6358 11.5879 17.4604 15.2975 18.427 19.2729L19.8891 25.3025" stroke="#4B3C3B" stroke-width="2" stroke-miterlimit="10" stroke-linecap="round" stroke-linejoin="round"/>
</svg>
