<svg width="34" height="34" viewBox="0 0 34 34" fill="none" xmlns="http://www.w3.org/2000/svg">
<path d="M19.8333 13.175V17.2833H23.5167C23.8 17.2833 23.9417 17.5667 23.9417 17.85L23.375 20.5417C23.375 20.6833 23.0917 20.825 22.95 20.825H19.8333V31.1667H15.5833V20.9667H13.175C12.8917 20.9667 12.75 20.825 12.75 20.5417V17.85C12.75 17.5667 12.8917 17.425 13.175 17.425H15.5833V12.75C15.5833 10.3417 17.425 8.5 19.8333 8.5H23.6583C23.9417 8.5 24.0833 8.64167 24.0833 8.925V12.325C24.0833 12.6083 23.9417 12.75 23.6583 12.75H20.2583C19.975 12.75 19.8333 12.8917 19.8333 13.175Z" stroke="#4B3C3B" stroke-width="2" stroke-miterlimit="10" stroke-linecap="round"/>
<path d="M21.25 31.1666H12.75C5.66668 31.1666 2.83334 28.3333 2.83334 21.25V12.75C2.83334 5.66665 5.66668 2.83331 12.75 2.83331H21.25C28.3333 2.83331 31.1667 5.66665 31.1667 12.75V21.25C31.1667 28.3333 28.3333 31.1666 21.25 31.1666Z" stroke="#4B3C3B" stroke-width="2" stroke-linecap="round" stroke-linejoin="round"/>
</svg>
